<svg width="235" height="235" viewBox="0 0 235 235" fill="none" xmlns="http://www.w3.org/2000/svg">
<g clip-path="url(#clip0_1_3)">
<rect width="235" height="235" fill="white"/>
<path d="M0 68.8087C8.70181 68.8087 17.4036 68.8087 26.1054 68.8087C35.7078 68.8087 44.7269 68.15 54.245 67.3275C70.3261 65.9377 86.5199 64.8522 102.689 64.5131C120.84 64.1325 138.892 63.2493 156.934 65.3426C167.157 66.5288 177.435 67.5923 187.673 68.6902C195.336 69.512 203.855 69.9357 211.254 71.7416C217.5 73.266 223.973 73.958 229.863 76.2742C231.035 76.7348 237.375 79.432 238 78.9404" stroke="black" stroke-width="2" stroke-linecap="round"/>
<path d="M0 177C17.9904 177 35.9809 177 53.9713 177C70.8814 177 86.6552 176.074 103.445 175.385C119.606 174.721 135.572 174.692 151.794 174.692C162.698 174.692 173.61 174.797 184.402 174.128C188.926 173.848 194.863 174.169 199.019 173.41C202.758 172.728 207.62 173.175 211.388 172.487C218.647 171.163 227.543 171.875 235 171" stroke="black" stroke-width="2" stroke-linecap="round"/>
</g>
<defs>
<clipPath id="clip0_1_3">
<rect width="235" height="235" fill="white"/>
</clipPath>
</defs>
</svg>
