<svg width="235" height="235" viewBox="0 0 235 235" fill="none" xmlns="http://www.w3.org/2000/svg">
<g clip-path="url(#clip0_1_3)">
<rect width="235" height="235" fill="white"/>
<path d="M0 68.8087C8.70181 68.8087 17.4036 68.8087 26.1054 68.8087C35.7078 68.8087 44.7269 68.15 54.245 67.3275C70.3261 65.9377 86.5199 64.8522 102.689 64.5131C120.84 64.1325 138.892 63.2493 156.934 65.3426C167.157 66.5288 177.435 67.5923 187.673 68.6902C195.336 69.512 203.855 69.9357 211.254 71.7416C217.5 73.266 223.973 73.958 229.863 76.2742C231.035 76.7348 237.375 79.432 238 78.9404" stroke="black" stroke-width="8" stroke-linecap="round"/>
<path d="M0 177C13.4737 177 26.9474 177 40.4211 177C53.0856 177 64.8992 176.074 77.4737 175.385C89.577 174.721 101.535 174.692 113.684 174.692C121.85 174.692 130.023 174.797 138.105 174.128C141.493 173.848 145.94 174.169 149.053 173.41C151.853 172.728 155.494 173.175 158.316 172.487C163.753 171.163 170.415 171.875 176 171" stroke="black" stroke-width="8" stroke-linecap="round"/>
<path d="M176 169.305C176 173.09 176.516 174.628 178.675 177.747C180.478 180.351 183.298 182.05 185.66 184.019C186.931 185.078 190.353 184.821 191.813 184.821C194.825 184.821 197.837 184.821 200.849 184.821C204.646 184.821 207.585 183.419 210.776 181.73C212.712 180.705 213.974 176.164 214.64 174.24C215.477 171.823 216.126 169.786 216.126 167.165C216.126 163.522 212.919 158.606 209.706 157" stroke="black" stroke-width="8" stroke-linecap="round"/>
<path d="M216.661 165.56C221.632 165.56 225.372 165.473 229.086 169.187C229.953 170.054 230.037 172.848 230.037 174.121C230.037 177.231 228.332 178.977 226.946 181.611C225.169 184.987 226.914 189.604 226.827 193.262C226.702 198.527 217.164 202.848 213.184 204.617C212.204 205.052 211.586 205.152 210.509 205.152C209.246 205.152 208.915 207.155 208.369 208.065C207.169 210.063 206.643 210.908 204.594 211.84C199.792 214.022 195.56 215.164 191.248 211.81C185.653 207.458 184.025 200.385 184.025 193.679C184.025 191.885 184.025 190.092 184.025 188.299C184.025 186.831 185.095 185.538 185.095 183.751" stroke="black" stroke-width="8" stroke-linecap="round"/>
</g>
<defs>
<clipPath id="clip0_1_3">
<rect width="235" height="235" fill="white"/>
</clipPath>
</defs>
</svg>
