<svg width="235" height="235" viewBox="0 0 235 235" fill="none" xmlns="http://www.w3.org/2000/svg">
<g clip-path="url(#clip0_1_2)">
<rect width="235" height="235" fill="white"/>
<path d="M235.5 70.6402C222.672 70.6402 160.378 66.1496 148.153 70.6402C138.262 74.2736 127.996 78.5672 120.46 86.1025C117.253 89.3101 115.04 93.2369 112.647 97.0652C110.81 100.005 107.651 102.312 106.102 105.41C105.128 107.358 103.648 110.04 103.525 112.241C103.465 113.331 103.89 115.74 102.789 116.291" stroke="black" stroke-width="2" stroke-linecap="round"/>
<path d="M104.262 114.45C100.269 114.45 96.5852 114.873 92.6446 115.554C86.9969 116.531 80.9314 117.171 75.4643 118.95C70.8694 120.444 66.2214 121.34 61.5564 122.549C56.9421 123.746 52.2518 124.061 47.7508 125.658C43.5133 127.162 38.1213 131.342 36.5222 135.803C34.9807 140.103 32.4247 146.944 35.4178 151.101C39.3879 156.615 45.4223 159.305 52.0254 159.916C57.1873 160.394 62.3502 160.878 67.4468 159.651C72.8964 158.339 77.9317 156.071 83.1954 154.21C90.7861 151.527 98.7835 150.147 106.634 148.504C110.074 147.784 113.669 147.696 117.065 146.847C120.046 146.102 123.654 145.484 126.719 145.375C130.836 145.228 135.595 144.086 139.604 143.084C141.949 142.498 144.563 141.771 146.047 139.627C147.484 137.552 148.44 134.642 148.44 132.121C148.44 128.987 146.521 127.587 144.595 125.31C141.793 122 138.501 120.495 134.675 118.52C129.296 115.744 124.507 114.818 118.538 114.818C116.054 114.818 114.171 115.05 111.809 115.575C109.049 116.188 106.038 115.923 103.157 115.923" stroke="black" stroke-width="2" stroke-linecap="round"/>
<path d="M111.625 147.215C111.625 153.747 118.718 156.342 124.183 157.155C139.032 159.364 153.168 164.652 168.299 165.234C171.938 165.374 175.64 165.334 179.282 165.255C181.368 165.209 183.349 164.15 185.439 164.15C187.404 164.15 189.162 163.782 191.145 163.782" stroke="black" stroke-width="2" stroke-linecap="round"/>
<path d="M92.481 122.181C91.7832 122.509 91.2715 122.97 90.6402 123.286" stroke="black" stroke-width="2" stroke-linecap="round"/>
<path d="M93.2172 124.758H96.8987" stroke="black" stroke-width="2" stroke-linecap="round"/>
<path d="M155.803 115.186C155.803 111.957 156.589 108.928 160.589 108.928C162.745 108.928 164.699 108.729 165.559 111.137C166.053 112.52 166.043 115.34 165.456 116.659C164.368 119.107 160.77 121.146 158.012 119.686C155.52 118.367 156.304 114.607 156.539 112.609C156.748 110.835 157.759 109.959 159.484 109.48C161.148 109.018 165.237 108.7 166.847 109.378C170.2 110.789 166.629 116.166 164.638 117.109C161.52 118.586 156.907 117.99 156.907 113.714C156.907 109.411 163.902 108.746 163.902 113.325C163.902 115.268 163.768 116.63 162.348 118.05C161.171 119.226 159.852 117.326 159.852 116.107C159.852 114.805 159.546 112.684 161.611 113.427C163.863 114.238 162.906 116.56 161.489 117.6C156.474 121.277 156.468 112.609 160.773 112.609C162.506 112.609 162.429 114.184 162.429 115.554C162.429 116.359 161.713 116.587 160.957 116.209C160.004 115.733 159.852 113.901 159.852 112.998C159.852 110.985 160.777 109.92 162.797 110.032C165.096 110.16 163.591 114.818 162.982 115.902C160.422 120.453 157.986 113.331 161.141 112.63C161.835 112.475 164.576 112.228 164.638 113.346C164.707 114.591 165.111 116.659 163.35 116.659C161.337 116.659 161.624 113.182 161.693 111.873C161.8 109.847 164.27 110.936 164.27 112.609" stroke="black" stroke-width="2" stroke-linecap="round"/>
<path d="M176.83 187.273C169.359 187.273 159.345 184.663 155.226 192.674C151.43 200.055 153.447 207.344 157.299 214.278C158.266 216.02 161.262 216.117 162.973 216.624C164.31 217.02 165.708 216.989 167.01 217.606C167.906 218.031 168.206 218.818 168.974 219.297C170.906 220.505 172.531 223.143 174.484 224.589C176.449 226.045 178.17 228.325 180.867 228.517C185.469 228.846 190.138 228.517 194.506 228.517C197.161 228.517 199.817 228.517 202.472 228.517C206.194 228.517 208.102 228.164 211.31 226.062C215.863 223.079 217.81 215.236 215.238 210.35C214.192 208.362 212.186 203.969 210.219 202.985" stroke="black" stroke-width="2" stroke-linecap="round"/>
</g>
<defs>
<clipPath id="clip0_1_2">
<rect width="235" height="235" fill="white"/>
</clipPath>
</defs>
</svg>
