<svg width="235" height="235" viewBox="0 0 235 235" fill="none" xmlns="http://www.w3.org/2000/svg">
<g clip-path="url(#clip0_1_5)">
<rect width="235" height="235" fill="white"/>
<path d="M11.2048 87.5079C15.6264 87.5079 19.4231 87.1668 23.748 86.2C32.8091 84.1746 40.7967 78.428 49.1912 74.6971C57.6621 70.9323 66.7283 68.54 75.1694 64.6209C80.824 61.9955 86.7621 59.6379 92.5278 57.2792C103.949 52.607 118.624 50.1262 129.444 57.0117C140.517 64.0583 151.491 69.5356 153.639 83.7627C155.773 97.9028 149.8 108.534 138.54 116.666C125.882 125.808 114.075 135.934 99.3047 141.753C89.926 145.448 80.5217 148.456 70.7703 151.116C61.1776 153.732 52.4772 154.92 42.5926 154.92C36.8907 154.92 30.4591 155.769 24.8775 154.653C22.7717 154.232 16.5758 153.892 15.4849 151.71" stroke="black" stroke-width="2" stroke-linecap="round"/>
<path d="M0 167.305C0 171.09 0.516025 172.628 2.6751 175.747C4.4782 178.351 7.29757 180.05 9.66008 182.019C10.9314 183.078 14.3532 182.821 15.8128 182.821C18.8248 182.821 21.8367 182.821 24.8487 182.821C28.6461 182.821 31.5854 181.419 34.7763 179.73C36.7122 178.705 37.9743 174.164 38.6403 172.24C39.4768 169.823 40.1265 167.786 40.1265 165.165C40.1265 161.522 36.9188 156.606 33.7063 155" stroke="black" stroke-width="2" stroke-linecap="round"/>
<path d="M40.6615 163.56C45.6316 163.56 49.3719 163.473 53.0858 167.187C53.9534 168.054 54.037 170.848 54.037 172.121C54.037 175.231 52.332 176.977 50.9458 179.611C49.1689 182.987 50.914 187.604 50.8269 191.262C50.7015 196.527 41.1641 200.848 37.1839 202.617C36.2042 203.052 35.5856 203.152 34.5088 203.152C33.2457 203.152 32.9146 205.155 32.3687 206.065C31.1695 208.063 30.6434 208.908 28.5938 209.84C23.7918 212.022 19.56 213.164 15.248 209.81C9.65345 205.458 8.02527 198.385 8.02527 191.679C8.02527 189.885 8.02527 188.092 8.02527 186.299C8.02527 184.831 9.09531 183.538 9.09531 181.751" stroke="black" stroke-width="2" stroke-linecap="round"/>
</g>
<defs>
<clipPath id="clip0_1_5">
<rect width="235" height="235" fill="white"/>
</clipPath>
</defs>
</svg>
