<svg width="235" height="235" viewBox="0 0 235 235" fill="none" xmlns="http://www.w3.org/2000/svg">
<rect width="235" height="235" fill="white"/>
<path d="M11.2048 87.5079C15.6264 87.5079 19.4231 87.1668 23.748 86.2C32.8091 84.1746 40.7967 78.428 49.1912 74.6971C57.6621 70.9323 66.7283 68.54 75.1694 64.6209C80.824 61.9955 86.7621 59.6379 92.5278 57.2792C103.949 52.607 118.624 50.1262 129.444 57.0117C140.517 64.0583 151.491 69.5356 153.639 83.7627C155.773 97.9028 149.8 108.534 138.54 116.666C125.882 125.808 114.075 135.934 99.3047 141.753C89.926 145.448 80.5217 148.456 70.7703 151.116C61.1776 153.732 52.4772 154.92 42.5926 154.92C36.8907 154.92 30.4591 155.769 24.8775 154.653C22.7717 154.232 16.5758 153.892 15.4849 151.71" stroke="black" stroke-width="8" stroke-linecap="round"/>
</svg>
